<svg width="97" height="17" viewBox="0 0 97 17" fill="none" xmlns="http://www.w3.org/2000/svg">
<path d="M0.782 0.899999H3.086V9.846L9.854 0.899999H12.032V13.5H9.728V4.572L2.96 13.5H0.782V0.899999ZM15.3128 3.888H17.5628V7.794H22.4048V3.888H24.6548V13.5H22.4048V9.702H17.5628V13.5H15.3128V3.888ZM35.2842 5.796H31.9182V13.5H29.6682V5.796H26.2842V3.888H35.2842V5.796ZM45.4944 8.748C45.4944 8.904 45.4824 9.126 45.4584 9.414H37.9164C38.0484 10.122 38.3904 10.686 38.9424 11.106C39.5064 11.514 40.2024 11.718 41.0304 11.718C42.0864 11.718 42.9564 11.37 43.6404 10.674L44.8464 12.06C44.4144 12.576 43.8684 12.966 43.2084 13.23C42.5484 13.494 41.8044 13.626 40.9764 13.626C39.9204 13.626 38.9904 13.416 38.1864 12.996C37.3824 12.576 36.7584 11.994 36.3144 11.25C35.8824 10.494 35.6664 9.642 35.6664 8.694C35.6664 7.758 35.8764 6.918 36.2964 6.174C36.7284 5.418 37.3224 4.83 38.0784 4.41C38.8344 3.99 39.6864 3.78 40.6344 3.78C41.5704 3.78 42.4044 3.99 43.1364 4.41C43.8804 4.818 44.4564 5.4 44.8644 6.156C45.2844 6.9 45.4944 7.764 45.4944 8.748ZM40.6344 5.58C39.9144 5.58 39.3024 5.796 38.7984 6.228C38.3064 6.648 38.0064 7.212 37.8984 7.92H43.3524C43.2564 7.224 42.9624 6.66 42.4704 6.228C41.9784 5.796 41.3664 5.58 40.6344 5.58ZM53.2834 3.78C54.2194 3.78 55.0534 3.984 55.7854 4.392C56.5294 4.8 57.1114 5.376 57.5314 6.12C57.9514 6.864 58.1614 7.722 58.1614 8.694C58.1614 9.666 57.9514 10.53 57.5314 11.286C57.1114 12.03 56.5294 12.606 55.7854 13.014C55.0534 13.422 54.2194 13.626 53.2834 13.626C51.9874 13.626 50.9614 13.194 50.2054 12.33V16.992H47.9554V3.888H50.0974V5.148C50.4694 4.692 50.9254 4.35 51.4654 4.122C52.0174 3.894 52.6234 3.78 53.2834 3.78ZM53.0314 11.7C53.8594 11.7 54.5374 11.424 55.0654 10.872C55.6054 10.32 55.8754 9.594 55.8754 8.694C55.8754 7.794 55.6054 7.068 55.0654 6.516C54.5374 5.964 53.8594 5.688 53.0314 5.688C52.4914 5.688 52.0054 5.814 51.5734 6.066C51.1414 6.306 50.7994 6.654 50.5474 7.11C50.2954 7.566 50.1694 8.094 50.1694 8.694C50.1694 9.294 50.2954 9.822 50.5474 10.278C50.7994 10.734 51.1414 11.088 51.5734 11.34C52.0054 11.58 52.4914 11.7 53.0314 11.7ZM65.2247 7.056C66.4487 7.056 67.3847 7.332 68.0327 7.884C68.6927 8.436 69.0227 9.216 69.0227 10.224C69.0227 11.28 68.6627 12.096 67.9427 12.672C67.2227 13.248 66.2087 13.53 64.9007 13.518L60.4007 13.5V3.888H62.6507V7.038L65.2247 7.056ZM64.7027 11.862C65.3627 11.874 65.8667 11.736 66.2147 11.448C66.5627 11.16 66.7367 10.74 66.7367 10.188C66.7367 9.648 66.5687 9.252 66.2327 9C65.8967 8.748 65.3867 8.616 64.7027 8.604L62.6507 8.586V11.844L64.7027 11.862ZM80.0003 8.748C80.0003 8.904 79.9883 9.126 79.9643 9.414H72.4223C72.5543 10.122 72.8963 10.686 73.4483 11.106C74.0123 11.514 74.7083 11.718 75.5363 11.718C76.5923 11.718 77.4623 11.37 78.1463 10.674L79.3523 12.06C78.9203 12.576 78.3743 12.966 77.7143 13.23C77.0543 13.494 76.3103 13.626 75.4823 13.626C74.4263 13.626 73.4963 13.416 72.6923 12.996C71.8883 12.576 71.2643 11.994 70.8203 11.25C70.3883 10.494 70.1723 9.642 70.1723 8.694C70.1723 7.758 70.3823 6.918 70.8023 6.174C71.2343 5.418 71.8283 4.83 72.5843 4.41C73.3403 3.99 74.1923 3.78 75.1403 3.78C76.0763 3.78 76.9103 3.99 77.6423 4.41C78.3863 4.818 78.9623 5.4 79.3703 6.156C79.7903 6.9 80.0003 7.764 80.0003 8.748ZM75.1403 5.58C74.4203 5.58 73.8083 5.796 73.3043 6.228C72.8123 6.648 72.5123 7.212 72.4043 7.92H77.8583C77.7623 7.224 77.4683 6.66 76.9763 6.228C76.4843 5.796 75.8723 5.58 75.1403 5.58ZM87.7892 3.78C88.7252 3.78 89.5592 3.984 90.2912 4.392C91.0352 4.8 91.6172 5.376 92.0372 6.12C92.4572 6.864 92.6672 7.722 92.6672 8.694C92.6672 9.666 92.4572 10.53 92.0372 11.286C91.6172 12.03 91.0352 12.606 90.2912 13.014C89.5592 13.422 88.7252 13.626 87.7892 13.626C86.4932 13.626 85.4672 13.194 84.7112 12.33V16.992H82.4612V3.888H84.6032V5.148C84.9752 4.692 85.4312 4.35 85.9712 4.122C86.5232 3.894 87.1292 3.78 87.7892 3.78ZM87.5372 11.7C88.3652 11.7 89.0432 11.424 89.5712 10.872C90.1112 10.32 90.3812 9.594 90.3812 8.694C90.3812 7.794 90.1112 7.068 89.5712 6.516C89.0432 5.964 88.3652 5.688 87.5372 5.688C86.9972 5.688 86.5112 5.814 86.0792 6.066C85.6472 6.306 85.3052 6.654 85.0532 7.11C84.8012 7.566 84.6752 8.094 84.6752 8.694C84.6752 9.294 84.8012 9.822 85.0532 10.278C85.3052 10.734 85.6472 11.088 86.0792 11.34C86.5112 11.58 86.9972 11.7 87.5372 11.7ZM95.4148 13.626C95.0068 13.626 94.6588 13.488 94.3708 13.212C94.0828 12.924 93.9388 12.564 93.9388 12.132C93.9388 11.688 94.0768 11.328 94.3528 11.052C94.6408 10.776 94.9948 10.638 95.4148 10.638C95.8348 10.638 96.1828 10.776 96.4588 11.052C96.7468 11.328 96.8908 11.688 96.8908 12.132C96.8908 12.564 96.7468 12.924 96.4588 13.212C96.1708 13.488 95.8228 13.626 95.4148 13.626Z" fill="white"/>
</svg>
