<svg width="24" height="20" viewBox="0 0 24 20" fill="none" xmlns="http://www.w3.org/2000/svg">
<path d="M24 2.99998C23.1011 3.38656 21.976 3.88719 21 3.99998C22.0287 3.40177 22.6323 2.10926 23 0.999983C22.0345 1.55862 21.1032 2.7882 20 2.99998C19.259 2.22908 18.0707 1.17213 17 0.999983C15.9293 0.827837 14.9568 1.50206 14 1.99998C13.0432 2.49791 12.4466 3.03827 12 3.99998C11.5534 4.9617 11.7513 5.97289 12 6.99998C10.0421 6.90457 7.74848 5.86182 6 4.99998C4.25152 4.13815 3.23641 3.47906 2 1.99998C1.56235 2.73085 0.99877 3.15427 1 3.99998C1 5.65987 1.67896 7.14142 3 7.99998C2.21822 7.97605 1.68363 8.36949 1 7.99998C1.00024 9.10547 1.28005 10.1443 2 11C2.71995 11.8556 3.88558 11.7807 5 12C4.27427 12.1912 3.73859 13.137 3 13C3.31421 13.9515 3.17514 14.4037 4 15C4.82486 15.5963 5.97229 15.9814 7 16C5.97859 16.7799 5.25074 17.6598 4 18C2.74926 18.3402 1.2894 18.1514 0 18C2.25082 19.4074 5.3239 20.0024 8 20C17.0577 20 22 12.327 22 5.99998C22 5.79393 22.0094 6.20375 22 5.99998C22.9641 5.32248 23.339 3.9616 24 2.99998Z" fill="black"/>
</svg>
